<svg id="圖層_1" data-name="圖層 1" xmlns="http://www.w3.org/2000/svg" viewBox="0 0 131.48 182.83"><defs><style>.cls-1{fill:#fff;}</style></defs><path class="cls-1" d="M41.29,78.43c-1.44.4-2.82.75-4.17,1.16-7.11,2.19-11,10.6-9.22,17.61a22.37,22.37,0,0,0,6.41,10.71,26.83,26.83,0,0,0,17.33,7.86c8.49.46,17,.3,25.53.5,4,.09,8.08,0,11.84-1.57a28.6,28.6,0,0,0,11.93-8.65c5.39-6.83,6.33-15.26-.29-22.25-2.26-2.38-5.05-4.26-8.88-4.28l-3,6.55c2.68,2.88,5.17,5.54,8.82,6.77-1.28-3.87-4.14-6.57-6.75-9.57a5.21,5.21,0,0,1,3-.13c4.94,2.18,8.47,6.38,8,12.28s-4,10-8.49,13.16a25.17,25.17,0,0,1-15.84,4.47c-8-.29-16-.37-24-.56a24.63,24.63,0,0,1-18.91-9c-5.45-6.44-5.36-15,1-19.62,2.32-1.71,4.49-2.32,6.5-1.18a27.55,27.55,0,0,0-7.3,9c2.88-.31,7.19-3.64,9.09-6.78Z"/><path class="cls-1" d="M92.24,44a8.25,8.25,0,0,0,1.52,0c.68-.16,1.34-.44,2-.66a15,15,0,0,0,9.33-19.34c-3.38-9.78-13.54-16.68-24.44-17C76,6.77,71.42,6.84,66.8,6.76c-5.51-.09-11-.78-16.54,0a26.88,26.88,0,0,0-16.81,8.87C28,21.72,26.56,29.1,30.65,35.85a13.55,13.55,0,0,0,11.11,7c1-2.2,1.87-4.34,2.79-6.46-2.56-3-5-5.64-8.93-7.13,1.5,4.19,4.58,6.65,7.42,10a14.91,14.91,0,0,1-3.2,0,10.5,10.5,0,0,1-6.07-4.27c-4.13-6-2.28-11.91,1.7-16.58,5.47-6.44,12.59-9,20.91-8.75,7,.23,13.93.38,20.89.66a47.75,47.75,0,0,1,8.47.8A22.07,22.07,0,0,1,101,22.68c2.83,5.35,2.34,12.23-3.62,16.2C95.62,40,93.8,41,91.17,40.26c.46-.61.75-1.07,1.11-1.48,1.84-2.09,3.72-4.13,5.51-6.26.34-.41.32-1.11.47-1.68l-.6-.47L89.26,37C90.35,39.55,91.26,41.66,92.24,44Z"/><path class="cls-1" d="M107.53,25.27a5.64,5.64,0,0,0,2.31,5.37,23.91,23.91,0,0,1,8.71,19.19c-.07,3.12,0,6.25,0,9.37-.18,6.55,0,13.16-.76,19.64C116.89,85.76,113,91.19,107,95l-.61,3.77a5.23,5.23,0,0,0,1.45-.29,28.72,28.72,0,0,0,10.86-11.59c2.24-4.09,2.85-8.6,3-13.16.15-6,0-12,.23-17.95.3-7.79-.19-15.33-4.9-22A26.91,26.91,0,0,0,107.53,25.27Z"/><path class="cls-1" d="M25.64,93.69c-.34-.3-.6-.59-.91-.82C17.51,87.34,14.44,80,14.78,71c.28-7.41.09-14.84.21-22.26.14-8.19,3.07-15.12,9.8-20.06,1.8-1.32,1.89-3,2.32-5a15.71,15.71,0,0,0-1.68.75c-9.25,5.53-13.4,14-13.71,24.45-.22,7.35-.19,14.71-.2,22.07a33.75,33.75,0,0,0,.36,7.19c1.14,5.38,3.3,10.37,7.35,14.29,2,1.89,3.9,3.88,6.79,5Z"/><path class="cls-1" d="M41.41,99.21A7.83,7.83,0,0,0,42,100a16.33,16.33,0,0,0,12.62,5c3.51-.1,7,0,10.54,0,6.1-.08,12.19,1.11,18.29-.08,3.17-.62,5.57-2.39,7.89-4.9l-2.54-1.73a14.12,14.12,0,0,1-9.85,3.85l-10.67-.29-.4-3.19H64.82l-.41,3c-7.11-.66-14.7,1.79-20.77-4.41Z"/><path class="cls-1" d="M92.14,23.32c-2.91-3.23-6.46-5.36-10.62-5.54-9.47-.42-18.95-.5-28.43-.52a14.89,14.89,0,0,0-10.43,4.56c-.19.18-.15.59-.21.92l2.44,1.43c6-5.54,13.35-3.14,20.36-3.68L65.7,24l3,.18.15-2.8c.29-.17.57-.48.84-.47,4.08.09,8.23-.18,12.22.48,2.86.47,5.52,2.2,8.54,3.48Z"/><path class="cls-1" d="M103.82,39.33a4.3,4.3,0,0,0,.39,1,13.59,13.59,0,0,1,3.34,9.86c-.16,7.67-.21,15.34-.35,23-.07,3.73-.36,7.42-3.25,10.29a4.19,4.19,0,0,0-.56,1.24L104.78,87a3.39,3.39,0,0,0,.68-.29,4.77,4.77,0,0,0,.57-.53,16.06,16.06,0,0,0,4.6-11.06q.32-13.15.26-26.32A19,19,0,0,0,109.63,43a10.62,10.62,0,0,0-4.15-5.63Z"/><path class="cls-1" d="M28.49,35.63a15.15,15.15,0,0,0-5.58,11.59q-.29,11.31-.5,22.62c-.07,3.63-.21,7.27,1.63,10.63a11.48,11.48,0,0,0,4,4.82l1.47-2.44a14.2,14.2,0,0,1-3.75-10.41c.13-7.28.22-14.55.44-21.83C26.32,47.35,26,44,28,41c.68-1,1.39-2,2.13-3Z"/><path class="cls-1" d="M88.46,35c2.2-5.6,6.08-8.53,12.6-8.25l-1.33-3.46c-5.56.48-9.66,2.72-12.66,7C85.83,32,86.3,33.83,88.46,35Z"/><path class="cls-1" d="M33.9,24.58c2.75,1.15,5.54,1.77,7.59,3.35s3.2,4.05,4.81,6.21l1.94-2.87c-.56-.93-1-1.81-1.57-2.58-2.55-3.34-5.71-5.81-10-6.4C34.63,22,34,22.71,33.9,24.58Z"/><path class="cls-1" d="M33.68,99.11c5.89.73,12.5-4.66,13.55-9.09l-2.09-3c-2.06,6.43-6.76,8.72-12.75,9.45Z"/><path class="cls-1" d="M99.72,97.36c-6.1-.45-10.08-3.3-12-9.27l-2.19,2.55c.84,5.56,9.63,10.89,13.69,9.44Z"/><path d="M73.36,95c-2,.74-3.8,1.42-5.58,2-2.5.83-4.5-.73-6.68-1.47-.77-.27-1.62-.81-2.33-.67-3.86.79-6.31-1.31-8.49-4A44.11,44.11,0,0,1,42.56,75.8a47.24,47.24,0,0,1-2.21-15.92,48.37,48.37,0,0,1,10-28.1c2.33-3.06,5.23-5.29,9.51-4.46a3.12,3.12,0,0,0,2.07-.27c3.54-2.21,7-1.87,10.48.1a3.85,3.85,0,0,0,2.54.61c3.1-.9,5.2.7,7,2.68a40.53,40.53,0,0,1,8.86,16c1.81,5.84,3,11.72,2.41,17.82A52.52,52.52,0,0,1,87.05,84.8a28.07,28.07,0,0,1-6.94,9C78.07,95.39,75.8,96.15,73.36,95ZM68.87,29.25c-.31,21.46-.62,42.6-.93,64.2a16.26,16.26,0,0,0,2.32-.87A13.58,13.58,0,0,0,75,86.81c2.64-5.36,3.45-11.19,3.92-17A122.23,122.23,0,0,0,79,52.28c-.4-6.38-1-12.84-4.59-18.48C73.19,31.84,71.79,30,68.87,29.25Zm-3.47-.33a11.53,11.53,0,0,0-6.72,6.39c-2.77,5.7-3.79,11.87-4.19,18.06a150.17,150.17,0,0,0,0,17.75c.33,6.3,1.56,12.47,4.84,18a10.79,10.79,0,0,0,5.29,4.27C64.73,71.74,65.63,50.46,65.4,28.92ZM57.52,31l-.39-.45c-.53.23-1.24.32-1.58.72-2,2.33-4.27,4.54-5.82,7.17a44,44,0,0,0-6.09,23.46,45.33,45.33,0,0,0,4.91,20.43c1.65,3.2,3.22,6.55,6.48,8.56a10.81,10.81,0,0,0,2,.69C51.28,81.74,50.64,71.37,50.75,61S51.88,40.25,57.52,31Zm20-.05c7.76,20.65,7.19,40.83-.7,61.11a30.17,30.17,0,0,0,4.72-4.51c2.54-3.15,4-6.87,5.52-10.62a42.72,42.72,0,0,0,2.74-15.82,45.2,45.2,0,0,0-3.14-16.71c-1.72-4.44-3.76-8.5-7-11.91A15.44,15.44,0,0,0,77.5,31Z"/><path d="M41.29,78.43C42.34,81,43.13,83,43.93,84.91c-1.9,3.14-6.21,6.47-9.09,6.78a27.55,27.55,0,0,1,7.3-9c-2-1.14-4.18-.53-6.5,1.18-6.34,4.67-6.43,13.18-1,19.62a24.63,24.63,0,0,0,18.91,9c8,.19,16,.27,24,.56a25.17,25.17,0,0,0,15.84-4.47c4.44-3.17,8.07-7.27,8.49-13.16s-3.1-10.1-8-12.28a5.21,5.21,0,0,0-3,.13c2.61,3,5.47,5.7,6.75,9.57-3.65-1.23-6.14-3.89-8.82-6.77l3-6.55c3.83,0,6.62,1.9,8.88,4.28,6.62,7,5.68,15.42.29,22.25A28.6,28.6,0,0,1,89,114.7c-3.76,1.54-7.79,1.66-11.84,1.57-8.51-.2-17,0-25.53-.5a26.83,26.83,0,0,1-17.33-7.86A22.37,22.37,0,0,1,27.9,97.2c-1.81-7,2.11-15.42,9.22-17.61C38.47,79.18,39.85,78.83,41.29,78.43Z"/><path d="M92.24,44c-1-2.29-1.89-4.4-3-6.93l8.4-6.65.6.47c-.15.57-.13,1.27-.47,1.68-1.79,2.13-3.67,4.17-5.51,6.26-.36.41-.65.87-1.11,1.48,2.63.76,4.45-.22,6.19-1.38,6-4,6.45-10.85,3.62-16.2A22.07,22.07,0,0,0,85.74,11.06a47.75,47.75,0,0,0-8.47-.8c-7-.28-13.93-.43-20.89-.66-8.32-.28-15.44,2.31-20.91,8.75-4,4.67-5.83,10.58-1.7,16.58a10.5,10.5,0,0,0,6.07,4.27,14.91,14.91,0,0,0,3.2,0c-2.84-3.32-5.92-5.78-7.42-10,4,1.49,6.37,4.15,8.93,7.13-.92,2.12-1.84,4.26-2.79,6.46a13.55,13.55,0,0,1-11.11-7C26.56,29.1,28,21.72,33.45,15.66A26.88,26.88,0,0,1,50.26,6.79c5.57-.81,11-.12,16.54,0,4.62.08,9.24,0,13.86.15,10.9.34,21.06,7.24,24.44,17a15,15,0,0,1-9.33,19.34c-.67.22-1.33.5-2,.66A8.25,8.25,0,0,1,92.24,44Z"/><path d="M107.53,25.27a26.91,26.91,0,0,1,9.51,8.5c4.71,6.66,5.2,14.2,4.9,22-.23,6-.08,12-.23,17.95-.12,4.56-.73,9.07-3,13.16a28.72,28.72,0,0,1-10.86,11.59,5.23,5.23,0,0,1-1.45.29L107,95c6-3.79,9.85-9.22,10.7-16.14.8-6.48.58-13.09.76-19.64.08-3.12,0-6.25,0-9.37a23.91,23.91,0,0,0-8.71-19.19A5.64,5.64,0,0,1,107.53,25.27Z"/><path d="M25.64,93.69,26,97.41c-2.89-1.16-4.83-3.15-6.79-5-4.05-3.92-6.21-8.91-7.35-14.29a33.75,33.75,0,0,1-.36-7.19c0-7.36,0-14.72.2-22.07C12,38.33,16.18,29.9,25.43,24.37a15.71,15.71,0,0,1,1.68-.75c-.43,2-.52,3.71-2.32,5-6.73,4.94-9.66,11.87-9.8,20.06-.12,7.42.07,14.85-.21,22.26-.34,9,2.73,16.37,10,21.9C25,93.1,25.3,93.39,25.64,93.69Z"/><path d="M41.41,99.21l2.23-2c6.07,6.2,13.66,3.75,20.77,4.41l.41-3h3.05l.4,3.19,10.67.29a14.12,14.12,0,0,0,9.85-3.85L91.33,100c-2.32,2.51-4.72,4.28-7.89,4.9-6.1,1.19-12.19,0-18.29.08-3.51,0-7-.08-10.54,0A16.33,16.33,0,0,1,42,100,7.83,7.83,0,0,1,41.41,99.21Z"/><path d="M92.14,23.32l-1.69,1.56c-3-1.28-5.68-3-8.54-3.48-4-.66-8.14-.39-12.22-.48-.27,0-.55.3-.84.47l-.15,2.8-3-.18-.45-3.52c-7,.54-14.32-1.86-20.36,3.68l-2.44-1.43c.06-.33,0-.74.21-.92a14.89,14.89,0,0,1,10.43-4.56c9.48,0,19,.1,28.43.52C85.68,18,89.23,20.09,92.14,23.32Z"/><path d="M103.82,39.33l1.66-2A10.62,10.62,0,0,1,109.63,43a19,19,0,0,1,1.26,5.81q.06,13.15-.26,26.32A16.06,16.06,0,0,1,106,86.16a4.77,4.77,0,0,1-.57.53,3.39,3.39,0,0,1-.68.29l-1.39-2.29a4.19,4.19,0,0,1,.56-1.24c2.89-2.87,3.18-6.56,3.25-10.29.14-7.67.19-15.34.35-23a13.59,13.59,0,0,0-3.34-9.86A4.3,4.3,0,0,1,103.82,39.33Z"/><path d="M28.49,35.63,30.13,38c-.74,1-1.45,2-2.13,3-2,2.93-1.68,6.32-1.78,9.58-.22,7.28-.31,14.55-.44,21.83a14.2,14.2,0,0,0,3.75,10.41l-1.47,2.44a11.48,11.48,0,0,1-4-4.82c-1.84-3.36-1.7-7-1.63-10.63q.21-11.31.5-22.62A15.15,15.15,0,0,1,28.49,35.63Z"/><path d="M88.46,35c-2.16-1.14-2.63-3-1.39-4.74,3-4.25,7.1-6.49,12.66-7l1.33,3.46C94.54,26.44,90.66,29.37,88.46,35Z"/><path d="M33.9,24.58c.08-1.87.73-2.57,2.76-2.29,4.3.59,7.46,3.06,10,6.4.58.77,1,1.65,1.57,2.58L46.3,34.14c-1.61-2.16-2.83-4.68-4.81-6.21S36.65,25.73,33.9,24.58Z"/><path d="M33.68,99.11l-1.29-2.63c6-.73,10.69-3,12.75-9.45l2.09,3C46.18,94.45,39.57,99.84,33.68,99.11Z"/><path d="M99.72,97.36l-.5,2.72c-4.06,1.45-12.85-3.88-13.69-9.44l2.19-2.55C89.64,94.06,93.62,96.91,99.72,97.36Z"/><path d="M60.94,159.51c1.27,0,2.54,0,3.81,0,.85,0,.88.06.87.87,0,1.23,0,2.46,0,3.68a2.43,2.43,0,0,1-.11.94c-.18.39-.49.83-1,.64-.21-.08-.36-.55-.38-.85,0-1.11,0-2.22,0-3.33,0-.9-.07-.94-.94-1h-.48c-.4,0-.81,0-.91.53a1,1,0,0,0,.62,1.27,2.65,2.65,0,0,0,.72,0c0,.3.08.86,0,.89s-1.23,0-1.32,0-.07.54-.07.85.1.57.53.62a2.22,2.22,0,0,1,.69.13.66.66,0,0,1,.29.47.55.55,0,0,1-.34.38c-.49.16-1.16.25-1,.9s.89.46,1.4.49c.79,0,1.59,0,2.38,0,.59,0,.89.22.87.84a23.38,23.38,0,0,1,0,2.37,3.33,3.33,0,0,1-.58,1.39,1,1,0,0,1-.84.2c-.17,0-.37-.4-.38-.63-.06-.74,0-1.5,0-2.25s-.08-.91-1-.94q-.48,0-1,0c-.82,0-.94.18-.93,1s.1.9,1,.65a.58.58,0,0,1,.53.15,8.74,8.74,0,0,1,.66,1.38.55.55,0,0,1-.09.5.58.58,0,0,1-.53.08c-1.1-.94-2.36-.76-3.63-.57a1.37,1.37,0,0,1-.7-.08c-.2-.09-.33-.31-.5-.48a3.37,3.37,0,0,1,.48-.45,1.78,1.78,0,0,1,.57-.15c.64-.14.8-.56.74-1.15a.87.87,0,0,0-.92-.89c-1.77,0-2.23-.3-2.17,1.9a13.46,13.46,0,0,1,0,1.42c0,.5-.2.92-.85.92s-.78-.41-.77-.94c0-1.15,0-2.3,0-3.45,0-.6.22-.87.84-.85.84,0,1.67,0,2.51,0a1.81,1.81,0,0,0,.7,0c.23-.1.53-.31.57-.51a.84.84,0,0,0-.39-.63,1.48,1.48,0,0,0-.78-.19c-.68,0-1.36,0-2,0s-.9-.19-.89-.83c0-1.5,0-3,0-4.51,0-.68.35-.9,1-.9C58.31,159.52,59.62,159.51,60.94,159.51Zm-2,1c-.91,0-1,.11-1,.84s.22,1,1.06,1,1.29-.43,1.28-1S59.87,160.5,58.94,160.5Zm-.17,4.27h.67c.44,0,.8-.12.79-.67s-.32-.7-.76-.74a7.79,7.79,0,0,0-1.08,0c-.42,0-.49.34-.49.68s.05.65.47.7A3.08,3.08,0,0,0,58.77,164.77Z"/><path d="M77.05,166.64H72.4c-1,0-1.11-.06-1.12-1,0-1.51,0-3,0-4.52,0-.92.12-1,1-1,.56,0,1.92,0,2.48-.08.41,0,0-.54.42-.59s1.54,0,1.54,0-.07.42.08.45a7.05,7.05,0,0,0,3,0s0-.44,0-.45a6.54,6.54,0,0,1,1.33,0c.1,0,0,.44.07.46a16.58,16.58,0,0,0,3.2.1c.92,0,.73.12.72,1.42s0,2.37,0,3.56a1.54,1.54,0,0,1-.19.9,1.58,1.58,0,0,1-.91.43c-.08,0-.34-.46-.35-.72,0-1.07,0-2.14,0-3.21s-.5-1.51-1.56-1.28a.87.87,0,0,0-.78.9c0,.49.1.87.67.92a4.31,4.31,0,0,1,.82,0,5.44,5.44,0,0,1,0,.7c-.24,0-1,0-1.2.08-.46.08-.26.29-.29.89a1,1,0,0,0,.84,1.11c.31.09.68.09.6.56s-.49.45-.84.45Zm.93-3.8h.82c.76,0,1-.27,1-.84a1,1,0,0,0-1-1c-.36,0-.72,0-1.07,0-.56,0-.78.28-.83.8C76.89,162.66,77.09,162.84,78,162.84Zm.32,1h-.48c-.52,0-.83.14-.85.72s.18,1,.79,1.08a3.89,3.89,0,0,0,1.18,0,1,1,0,0,0,.89-1c0-.61-.4-.8-.94-.83Zm-4.22,0c-.87,0-1.29.27-1.3.84s.53,1,1.34,1,1-.18,1-1S75,163.83,74.08,163.83Zm0-1c.88,0,1-.13,1-.92s-.15-.94-1-1-1.35.45-1.33,1S73.28,162.85,74.11,162.85Z"/><path d="M61.16,173.34h4.53c.28,0,.62-.09.82,0s.79.55.8.85-.43.66-.74.91c-.15.12-.46,0-.7,0-2.78,0-5.56,0-8.34,0a4.69,4.69,0,0,1-3.65-1.39c-.47-.51-.76-.31-1.13.1a10.4,10.4,0,0,1-1.39,1.26c-.12.1-.43,0-.65-.07,0-.18,0-.43.09-.55,1-1.07.92-2.37.9-3.67,0-1.51,0-3,0-4.52,0-.7-.12-1.23-.88-1.45-.19-.06-.33-.28-.5-.43.22-.2.42-.53.66-.57a6.15,6.15,0,0,1,1.66,0c.62.07.89.49.9,1.31,0,1.86.11,3.73,0,5.58-.13,1.65.74,2.38,2.53,2.54s3.41,0,5.12,0Z"/><path d="M37.74,159.68a2.89,2.89,0,0,1,1.31-.13c1.91,0,3.83,0,5.73,0,.37,0,1.2,0,1.2.49,0,.69-.93.6-1.4.6-.83,0-1.67,0-2.5,0s-1.25-.19-1.35.58a5.65,5.65,0,0,0,.06,2.28,6.52,6.52,0,0,0,1.93.26c.72,0,1.43,0,2.15,0s1,.28,1,1c0,2.3.08,4.6,0,6.89a3.55,3.55,0,0,1-1.69,3.16,2.79,2.79,0,0,1-1.43,0,6.65,6.65,0,0,0,.56-.52,3.85,3.85,0,0,0,.75-2.78c0-1.9,0-3.81,0-5.71,0-1.09-.05-1.12-1.16-1.14-.36,0-.72,0-1.07,0a2.37,2.37,0,0,0-2.07.75c-.11.15-.29.42-.46.48s-.81.23-1.08,0c.06-.28,0-.56.16-.77.91-1.22.91-3.25.74-4.61,0-.29-.95-.13-1.31-.25C37.66,160.31,37.74,160,37.74,159.68Z"/><path d="M99.71,167.59c1,0,2,0,3,0s1,.09,1,1c0,1.47,0,2.94,0,4.4a4.11,4.11,0,0,1-.39,1.34.78.78,0,0,1-1,.5c-.22-.1-.37-.57-.38-.88,0-1.38,0-2.77,0-4.15,0-1.21,0-1.22-1.17-1.23s-2.23,0-3.34,0c-.71,0-.84.22-.83,1,0,.56.16.92.81.9.83,0,1.67,0,2.5,0,.2,0,.4,0,.6,0,.36,0,.79,0,.81.49s-.45.46-.78.47c-1,0-2.07,0-3.1,0a1.13,1.13,0,0,0-.73.27.66.66,0,0,0,.48,1.11c.8,0,1.59,0,2.39,0a3,3,0,0,1,1,0,3.32,3.32,0,0,1,.79.59,2.41,2.41,0,0,1-.78.34c-.87,0-1.75,0-2.63,0-.63,0-1.18,0-1.4.78a1,1,0,0,1-.47.51.83.83,0,0,1-1.27-.71c0-1.74,0-3.49,0-5.23a1.81,1.81,0,0,1,1.77-1.58c1.07,0,2.15,0,3.22,0Z"/><path d="M32.56,160.45c.76,0,1.52,0,2.27,0,.18,0,.35.23.53.35a3.13,3.13,0,0,1-.43.52c-.11.08-.3,0-.46.07-1,.14-1.18.24-1.18,1.22q0,4.94,0,9.87c0,1.06.16,1.18,1.23,1.29a1.91,1.91,0,0,1,.58.1c.11.05.26.24.24.34a.9.9,0,0,1-.28.45s-.15.06-.22.06c-1.56,0-3.11,0-4.66,0a.65.65,0,0,1-.41-.44.63.63,0,0,1,.4-.46c.43-.14,1.15-.05,1.29-.31a3.72,3.72,0,0,0,.16-1.62c0-3.05,0-6.1,0-9.15,0-1.19,0-1.2-1.19-1.34-.33,0-.66,0-.68-.49s.35-.47.67-.48h2.14Z"/><path d="M103.08,163.77c-.42.08-.82.17-1.23.23a4,4,0,0,0-.93.1.81.81,0,0,0-.44.6.8.8,0,0,0,.42.6,2.54,2.54,0,0,0,.92.15,7.45,7.45,0,0,1,1,0,2.28,2.28,0,0,1,.59.32c-.15.2-.27.46-.47.57a2,2,0,0,1-.9.22c-1.79,0-3.58,0-5.37,0-.15,0-.36,0-.46,0a1.18,1.18,0,0,1-.47-.58c0-.12.26-.42.44-.45.51-.07,1-.05,1.54-.07s.88-.13.86-.73-.31-.68-.77-.71a1.78,1.78,0,0,1-.7-.08c-.18-.09-.4-.31-.4-.48A.68.68,0,0,1,97,163a2.49,2.49,0,0,1,.82-.08c.43,0,.67-.2.67-.64s-.15-.77-.68-.77H96.31c-.33,0-.67,0-.65-.5s.37-.46.69-.47h1.07a1.33,1.33,0,0,0,1.32-.57c.46-.68,1.16-.53,1.72.15a1.23,1.23,0,0,0,.75.4c.63.06,1.27,0,1.9,0,.37,0,.67.19.58.57,0,.17-.39.35-.61.37-.63.06-1.27,0-1.91,0a.68.68,0,0,0-.74.74c0,.54.3.68.76.68H102C102.58,162.84,102.92,163.08,103.08,163.77Z"/><path d="M70,175a6,6,0,0,0,1.34-4.64,26.16,26.16,0,0,1,0-2.8c.87,0,2,0,2.84,0h9.67a3.75,3.75,0,0,1,1,0c.18,0,.44.26.44.41a.66.66,0,0,1-.38.49,3.66,3.66,0,0,1-.94,0H74.29c-1.4,0-1.52.13-1.54,1.48,0,.79,0,1.58,0,2.38a3.29,3.29,0,0,1-1.62,2.6,2.76,2.76,0,0,1-1,.23Z"/><path d="M91.31,167.48c0-2.17,0-4.34,0-6.52a2,2,0,0,1,.09-.93.94.94,0,0,1,.71-.43,1,1,0,0,1,.64.51,2,2,0,0,1,0,.82c0,4.15,0,8.3,0,12.45a2.78,2.78,0,0,1-.32,1.33c-.13.24-.55.32-.85.47a2.63,2.63,0,0,1-.3-.82c0-1.74,0-3.48,0-5.22v-1.66Z"/><path d="M85,175.18c-1.31-.73-2.49-1.36-3.63-2.05a1,1,0,0,0-1.18,0c-1.12.66-2.27,1.26-3.43,1.85s-2.26.28-2.52-.65a5.68,5.68,0,0,1,0-2.1c0-.16.56-.36.86-.36,2,0,4,0,6.08,0,1.15,0,2.31,0,3.46,0,.19,0,.37.28.56.43a2.8,2.8,0,0,1-.55.49c-.16.08-.39,0-.59,0s-.38.06-.63.1C83.64,173.94,85.4,173.7,85,175.18Zm-7-2-.1-.34a7.28,7.28,0,0,0-1.48,0c-.24,0-.49.35-.61.6s0,.56.18.6a1,1,0,0,0,.75-.08C77.23,173.8,77.63,173.49,78.05,173.22Z"/><path d="M88.5,166.16c0-1,0-2,0-3,0-.63.28-.84.87-.83s1,.12,1,.77c0,2.1,0,4.2,0,6.29,0,.57-.43.75-.89.76s-.94-.17-.94-.81v-3.21Z"/><path d="M79.85,170.51c-1.51,0-3,0-4.52,0-.39,0-1,.22-1.09-.36,0-.78.69-.59,1.16-.6,1.19,0,2.38,0,3.57,0h5.11a1.81,1.81,0,0,1,.81.09.69.69,0,0,1,.32.55c0,.13-.31.34-.49.34-1.62,0-3.25,0-4.87,0Z"/><path d="M52.32,159.5l1.14.43c-.25.41-.5.82-.76,1.23a.9.9,0,0,1-.16.18c-.46.36-.93.77-1.59.49-.28-.12-.39-1.27-.21-1.78C51,159.37,51.58,159.62,52.32,159.5Z"/><path d="M41.3,174.94a2.13,2.13,0,0,1-1.86-.7,11.43,11.43,0,0,1-1.2-2.27c-.17-.35,1-.41,1.37-.49.1,0,.37.83.57,1.32A7.25,7.25,0,0,0,41.3,174.94Z"/><path d="M93.75,165.14c0-.86,0-1.55,0-2.24,0-.41.28-.53.63-.53s.7,0,.82.48C95.45,163.89,95.11,164.54,93.75,165.14Z"/><path d="M29,145.56l1.42,2.13-.19.14a.61.61,0,0,0-.35-.2,2.74,2.74,0,0,0-.76.36,10.68,10.68,0,0,1-2.16,1,7.62,7.62,0,0,1-2.1.26,6.55,6.55,0,0,1-4-1.15,4.79,4.79,0,0,1-1.44-1.66,5.21,5.21,0,0,1-.6-2.49,5.06,5.06,0,0,1,1.08-3.23,5.94,5.94,0,0,1,4.94-2.06,7.42,7.42,0,0,1,2.08.26,10.3,10.3,0,0,1,2.17,1,2.9,2.9,0,0,0,.76.35.58.58,0,0,0,.35-.19l.19.13L29,142.36l-.21-.14a1.68,1.68,0,0,0,0-.2.58.58,0,0,0-.19-.41,3.21,3.21,0,0,0-.66-.46,5.73,5.73,0,0,0-2.81-.74,4.24,4.24,0,0,0-2.8.87,3.53,3.53,0,0,0,0,5.36,4.19,4.19,0,0,0,2.8.88,5.64,5.64,0,0,0,2.81-.75,2.86,2.86,0,0,0,.66-.46.58.58,0,0,0,.19-.41,1.68,1.68,0,0,0,0-.2Z"/><path d="M41.9,144.61H36v3.69a.54.54,0,0,0,.11.35.8.8,0,0,0,.37.19v.24H33.29v-.24a.75.75,0,0,0,.37-.2.5.5,0,0,0,.11-.34v-8.67a.52.52,0,0,0-.11-.35.84.84,0,0,0-.37-.19v-.24h3.19v.24a.67.67,0,0,0-.37.19.52.52,0,0,0-.11.35v3.3h5.9v-3.3a.52.52,0,0,0-.11-.35.67.67,0,0,0-.37-.19v-.24h3.19v.24a.89.89,0,0,0-.38.19.52.52,0,0,0-.1.35v8.67a.49.49,0,0,0,.1.34.79.79,0,0,0,.38.2v.24H41.42v-.24a.8.8,0,0,0,.37-.19.54.54,0,0,0,.11-.35Z"/><path d="M53.61,138.67a6,6,0,0,1,4.24,1.45,5.3,5.3,0,0,1,.86,6.65,5.53,5.53,0,0,1-5.09,2.49,6,6,0,0,1-4.22-1.45A5,5,0,0,1,48.13,146a5.2,5.2,0,0,1-.38-2,5.29,5.29,0,0,1,.78-2.81Q50,138.72,53.61,138.67Zm0,1.74a3.52,3.52,0,0,0-2.44.87,3.69,3.69,0,0,0,0,5.37,3.88,3.88,0,0,0,4.9,0,3.37,3.37,0,0,0,.88-1.27,3.6,3.6,0,0,0,.27-1.37,3.4,3.4,0,0,0-1.15-2.73A3.69,3.69,0,0,0,53.62,140.41Z"/><path d="M68.94,149.08,65.17,142v6.28a.52.52,0,0,0,.1.35.84.84,0,0,0,.38.2v.24h-3v-.24a.75.75,0,0,0,.37-.2.52.52,0,0,0,.1-.35v-8.66a.52.52,0,0,0-.1-.35.84.84,0,0,0-.37-.19v-.24h3.94v.24a.41.41,0,0,0-.36.41.78.78,0,0,0,.11.35l2.79,5.28L72,139.94a1.29,1.29,0,0,0,.18-.51c0-.2-.12-.31-.37-.34v-.24h3.87v.24a.89.89,0,0,0-.38.19.52.52,0,0,0-.1.35v8.66a.52.52,0,0,0,.1.35.79.79,0,0,0,.38.2v.24h-3.2v-.24a.75.75,0,0,0,.37-.19.52.52,0,0,0,.11-.36V142Z"/><path d="M81.72,144.59v2.8h6.57a.52.52,0,0,0,.35-.1.79.79,0,0,0,.19-.38h.24v2.65h-.24a.79.79,0,0,0-.19-.38.52.52,0,0,0-.35-.1H79v-.24a.75.75,0,0,0,.37-.2.52.52,0,0,0,.1-.35v-8.65a.53.53,0,0,0-.1-.36.84.84,0,0,0-.37-.19v-.24h9.1a.52.52,0,0,0,.35-.11.75.75,0,0,0,.19-.37h.24V141h-.24a.79.79,0,0,0-.19-.38.52.52,0,0,0-.35-.1H81.72V143h4.15a.49.49,0,0,0,.34-.1.79.79,0,0,0,.2-.38h.24v2.59h-.24a.75.75,0,0,0-.2-.37.5.5,0,0,0-.34-.11Z"/><path d="M94.91,144.59v2.8h6.57a.52.52,0,0,0,.35-.1.79.79,0,0,0,.19-.38h.24v2.65H102a.79.79,0,0,0-.19-.38.52.52,0,0,0-.35-.1H92.2v-.24a.75.75,0,0,0,.37-.2.52.52,0,0,0,.1-.35v-8.65a.53.53,0,0,0-.1-.36.84.84,0,0,0-.37-.19v-.24h9.1a.52.52,0,0,0,.35-.11.75.75,0,0,0,.19-.37h.24V141h-.24a.79.79,0,0,0-.19-.38.52.52,0,0,0-.35-.1H94.91V143h4.15a.49.49,0,0,0,.34-.1.79.79,0,0,0,.2-.38h.24v2.59H99.6a.75.75,0,0,0-.2-.37.5.5,0,0,0-.34-.11Z"/><path d="M110.76,140.54v7.75a.52.52,0,0,0,.1.35.79.79,0,0,0,.38.2v.24h-3.19v-.24a.75.75,0,0,0,.37-.2.52.52,0,0,0,.1-.35v-7.75h-3.17a.52.52,0,0,0-.35.1.74.74,0,0,0-.19.38h-.24v-2.65h.24a.79.79,0,0,0,.2.38.48.48,0,0,0,.34.1h8.58a.52.52,0,0,0,.35-.1.79.79,0,0,0,.19-.38h.24V141h-.24a.74.74,0,0,0-.19-.38.52.52,0,0,0-.35-.1Z"/><path d="M43,127.61l.84.21a2.89,2.89,0,0,1-1,1.58,2.64,2.64,0,0,1-1.68.54,3,3,0,0,1-1.67-.42,2.59,2.59,0,0,1-1-1.21,4.33,4.33,0,0,1-.33-1.7,3.61,3.61,0,0,1,.38-1.72,2.52,2.52,0,0,1,1.07-1.12,3.12,3.12,0,0,1,1.54-.39,2.54,2.54,0,0,1,1.6.49,2.45,2.45,0,0,1,.91,1.36l-.83.19a2,2,0,0,0-.64-1,1.7,1.7,0,0,0-1-.32,2.1,2.1,0,0,0-1.23.35,2,2,0,0,0-.69.94,3.9,3.9,0,0,0-.2,1.22A3.78,3.78,0,0,0,39.3,128a1.7,1.7,0,0,0,.73.9,2,2,0,0,0,1.08.3,1.78,1.78,0,0,0,1.19-.4A2.11,2.11,0,0,0,43,127.61Z"/><path d="M45.31,129.83v-6.34h.84v2.61h3.29v-2.61h.84v6.34h-.84v-3H46.15v3Z"/><path d="M51.87,126.74a3.43,3.43,0,0,1,.85-2.47,2.89,2.89,0,0,1,2.19-.89,3,3,0,0,1,1.58.42A2.69,2.69,0,0,1,57.56,125a4,4,0,0,1,0,3.43,2.68,2.68,0,0,1-1.11,1.15,3.15,3.15,0,0,1-1.54.39,3,3,0,0,1-1.6-.43,2.84,2.84,0,0,1-1.07-1.18A3.63,3.63,0,0,1,51.87,126.74Zm.86,0a2.54,2.54,0,0,0,.62,1.8,2.16,2.16,0,0,0,3.11,0,2.7,2.7,0,0,0,.61-1.89,3.37,3.37,0,0,0-.26-1.36,2,2,0,0,0-.77-.89,2.07,2.07,0,0,0-1.13-.32,2.18,2.18,0,0,0-1.53.61A2.74,2.74,0,0,0,52.73,126.76Z"/><path d="M64,127.61l.84.21a2.89,2.89,0,0,1-.95,1.58,2.64,2.64,0,0,1-1.68.54,3,3,0,0,1-1.67-.42,2.59,2.59,0,0,1-1-1.21,4.33,4.33,0,0,1-.33-1.7,3.61,3.61,0,0,1,.38-1.72,2.52,2.52,0,0,1,1.07-1.12,3.12,3.12,0,0,1,1.54-.39,2.54,2.54,0,0,1,1.6.49,2.45,2.45,0,0,1,.91,1.36l-.83.19a2,2,0,0,0-.64-1,1.71,1.71,0,0,0-1.06-.32,2.09,2.09,0,0,0-1.22.35,1.92,1.92,0,0,0-.69.94,3.9,3.9,0,0,0-.2,1.22,3.78,3.78,0,0,0,.24,1.41,1.7,1.7,0,0,0,.73.9,2,2,0,0,0,1.08.3,1.78,1.78,0,0,0,1.19-.4A2.11,2.11,0,0,0,64,127.61Z"/><path d="M66.05,126.74a3.47,3.47,0,0,1,.84-2.47,2.92,2.92,0,0,1,2.19-.89,3,3,0,0,1,1.59.42A2.69,2.69,0,0,1,71.74,125a4.06,4.06,0,0,1,0,3.43,2.66,2.66,0,0,1-1.1,1.15,3.18,3.18,0,0,1-1.54.39,3,3,0,0,1-1.6-.43,2.77,2.77,0,0,1-1.07-1.18A3.63,3.63,0,0,1,66.05,126.74Zm.86,0a2.54,2.54,0,0,0,.62,1.8,2.16,2.16,0,0,0,3.11,0,2.75,2.75,0,0,0,.61-1.89,3.37,3.37,0,0,0-.26-1.36,2,2,0,0,0-.77-.89,2.1,2.1,0,0,0-1.13-.32,2.15,2.15,0,0,0-1.53.61A2.74,2.74,0,0,0,66.91,126.76Z"/><path d="M73.6,129.83v-6.34h.84v5.59h3.13v.75Z"/><path d="M78.31,129.83l2.44-6.34h.9l2.6,6.34h-1l-.74-1.92H79.9l-.7,1.92Zm1.83-2.6h2.15l-.66-1.76c-.2-.53-.35-1-.45-1.31a7.83,7.83,0,0,1-.34,1.21Z"/><path d="M86.32,129.83v-5.59H84.23v-.75h5v.75h-2.1v5.59Z"/><path d="M90.58,129.83v-6.34h4.58v.75H91.42v1.94h3.5v.75h-3.5v2.15h3.89v.75Z"/></svg>